<svg width="56" height="24" viewBox="0 0 56 24" fill="none" xmlns="http://www.w3.org/2000/svg">
<g clip-path="url(#clip0_63756_21780)">
<path d="M48.2988 23.1103C43.5924 23.1103 40.353 19.3241 40.353 14.8109C40.353 10.2674 43.9898 6.875 48.5435 6.875C52.8832 6.875 56.0002 10.116 56.0002 14.8109V15.9013H44.0508C44.2342 18.0822 46.404 19.627 48.4212 19.627C50.1632 19.627 51.7829 18.7486 52.6998 17.2947L55.5724 19.2635C53.9527 21.6261 51.7829 23.1103 48.2988 23.1103ZM52.18 12.9935C51.6299 11.4185 50.5603 10.3886 48.2988 10.3886C46.343 10.3886 44.9677 11.2973 44.2342 12.9935H52.18Z" fill="#D0BCFF"/>
<path d="M30.7738 23.111C26.373 23.111 22.5835 19.5065 22.5835 14.9631V0.181641H26.2202V8.57187C27.6566 7.45115 29.1235 6.87567 30.9572 6.87567C35.5108 6.87567 39.1169 10.5104 39.1169 14.963C39.1169 19.5065 35.3274 23.111 30.7738 23.111ZM30.9694 19.5065C33.506 19.5065 35.7064 17.568 35.7064 14.9631C35.7064 12.4793 33.6893 10.5105 31.1528 10.5105C28.4023 10.5105 26.4159 12.4793 26.4159 14.9631C26.4159 17.568 28.5857 19.5065 30.9694 19.5065Z" fill="#D0BCFF"/>
<path d="M5.47042 2.72608C5.47042 1.24186 4.21741 0 2.71991 0C1.2224 0 0 1.24186 0 2.72608C0 4.2103 1.22244 5.45213 2.71991 5.45213C4.21737 5.45213 5.47042 4.21027 5.47042 2.72608Z" fill="#D0BCFF"/>
<path d="M13.827 6.90625C9.73186 6.90625 6.79804 9.72321 6.79804 13.7517V16.9384L6.79508 18.3865C6.79508 19.0046 6.28834 19.5075 5.66558 19.5075C5.04282 19.5075 4.52313 19.0046 4.52313 18.3865V7.45142H0.916992V18.3865C0.916992 20.9894 3.04004 23.107 5.66558 23.107C8.29112 23.107 10.4655 20.9894 10.4655 18.3865V16.9384L10.4654 13.7517C10.4654 11.9949 11.5656 10.4502 13.8271 10.4502C16.0886 10.4502 17.1582 11.9949 17.1582 13.7517V22.5963H20.8255V13.7517C20.8255 9.72321 17.9222 6.90625 13.827 6.90625Z" fill="#D0BCFF"/>
</g>
<defs>
<clipPath id="clip0_63756_21780">
<rect width="56" height="23.1111" fill="white"/>
</clipPath>
</defs>
</svg>
