<svg width="51" height="40" viewBox="0 0 51 40" xmlns="http://www.w3.org/2000/svg">
<g opacity="0.7">
<path d="M16.299 8.14786C14.8877 8.56293 14.0299 9.36541 13.3658 10.915C13.1905 11.3117 13.1813 11.5976 13.1628 16.3756C13.1444 19.7515 13.1721 21.4395 13.2366 21.4764C13.2827 21.5133 13.458 21.4395 13.624 21.3104C13.993 21.0336 14.8646 20.5681 15.6256 20.2427C16.4903 19.8729 17.8047 19.966 17.8047 19.966C23.9847 20.1043 28.32 30.585 30.9834 31.7979C31.606 32.1761 32.3485 32.3145 33.1049 32.3145C34.9312 32.3052 36.3517 31.4382 37.1357 29.8517L37.1694 29.7265C37.2176 29.5475 37.2492 29.3643 37.2639 29.1795L37.2787 28.9939L37.4678 20.4156C37.4955 11.7083 37.5669 11.6322 37.3824 11.0419C37.0873 10.1287 36.3609 9.2086 35.6046 8.69207C34.8113 8.15708 34.2025 7.96338 33.2986 7.96338C31.3155 7.96338 29.669 8.79353 29.0463 10.696L28.8342 11.9412L28.7697 16.9844C28.7328 17.0766 28.6866 17.0766 28.5206 16.9844C28.4007 16.9198 26.6943 15.2226 24.7112 13.221C22.7372 11.2194 20.9201 9.41153 20.6895 9.21783C19.4166 8.12941 17.7379 7.72356 16.299 8.14786Z" fill="#D0BCFF"/>
<circle cx="18.0119" cy="27.4357" r="4.87713" fill="#D0BCFF"/>
<ellipse cx="33.1616" cy="12.0092" rx="4.3237" ry="4.3237" fill="#D0BCFF"/>
</g>
</svg>
